<svg xmlns="http://www.w3.org/2000/svg" viewBox="0 0 128 128">
  <defs>
    <linearGradient id="grad" x1="0%" y1="0%" x2="100%" y2="100%">
      <stop offset="0%" style="stop-color:#5865f2"/>
      <stop offset="100%" style="stop-color:#eb459e"/>
    </linearGradient>
  </defs>
  <rect width="128" height="128" rx="20" fill="url(#grad)"/>
  <g fill="#fff">
    <!-- QR pattern -->
    <rect x="24" y="24" width="24" height="24" rx="4"/>
    <rect x="80" y="24" width="24" height="24" rx="4"/>
    <rect x="24" y="80" width="24" height="24" rx="4"/>
    <!-- Inner squares -->
    <rect x="32" y="32" width="8" height="8" fill="url(#grad)"/>
    <rect x="88" y="32" width="8" height="8" fill="url(#grad)"/>
    <rect x="32" y="88" width="8" height="8" fill="url(#grad)"/>
    <!-- Center pattern -->
    <rect x="56" y="24" width="12" height="12" rx="2"/>
    <rect x="56" y="56" width="16" height="16" rx="2"/>
    <rect x="80" y="56" width="12" height="12" rx="2"/>
    <rect x="24" y="56" width="12" height="12" rx="2"/>
    <rect x="56" y="92" width="12" height="12" rx="2"/>
    <rect x="80" y="80" width="24" height="8" rx="2"/>
    <rect x="92" y="92" width="12" height="12" rx="2"/>
  </g>
</svg>
